<svg width="46" height="46" viewBox="0 0 46 46" fill="none" xmlns="http://www.w3.org/2000/svg">
<g clip-path="url(#clip0_8_35)">
<path d="M12.1515 26.8729C11.2834 28.9828 11.2833 31.3659 12.1515 33.4759C14.2615 34.3441 16.6446 34.344 18.7546 33.476L16.6244 31.3458C15.8561 31.4989 15.0595 31.5011 14.2809 31.3465C14.1263 30.5679 14.1285 29.7713 14.2815 29.003L12.1515 26.8729ZM14.6943 19.6194L10.6702 19.8722L8.85333 21.6891L23.9383 36.7741L25.7552 34.9572L26.008 30.9331L31.4808 25.4603C34.7648 22.1763 35.1974 17.0213 32.9372 12.6902C28.6061 10.4299 23.4511 10.8626 20.1671 14.1466L14.6943 19.6194ZM13.3136 22.3781L15.8674 22.2176L22.0527 16.0323C24.238 13.847 27.7107 13.3361 30.9348 14.6926C32.2913 17.9167 31.7804 21.3894 29.5951 23.5747L23.4098 29.76L23.2493 32.3139L13.3136 22.3781ZM23.9383 21.6891C24.9797 22.7306 26.6682 22.7305 27.7095 21.6891C28.7509 20.6477 28.751 18.9593 27.7095 17.9179C26.6681 16.8764 24.9797 16.8765 23.9383 17.9179C22.8969 18.9592 22.8968 20.6477 23.9383 21.6891Z" fill="white"/>
</g>
<defs>
<clipPath id="clip0_8_35">
<rect width="32" height="32" fill="white" transform="matrix(-0.707107 -0.707107 -0.707107 0.707107 45.6274 22.6274)"/>
</clipPath>
</defs>
</svg>
